<svg width="180px" height="180px" viewBox="-3.68 -3.68 23.36 23.36" version="1.1"
  xmlns="http://www.w3.org/2000/svg" xmlns:xlink="http://www.w3.org/1999/xlink"
  class="si-glyph si-glyph-bubble-message-talk" fill="#b5835a"
  transform="rotate(0)matrix(-1, 0, 0, 1, 0, 0)">
  <g id="SVGRepo_bgCarrier" stroke-width="0"
    transform="translate(0.7999999999999998,0.7999999999999998), scale(0.9)">
    <rect x="-3.68" y="-3.68" width="23.36" height="23.36" rx="11.68" fill="#1c71d8" strokewidth="0"></rect>
  </g>
  <g id="SVGRepo_tracerCarrier" stroke-linecap="round" stroke-linejoin="round" stroke="#CCCCCC"
    stroke-width="0.032"></g>
  <g id="SVGRepo_iconCarrier">
    <title>639</title>
    <defs> </defs>
    <g stroke-width="0.00016" fill="none" fill-rule="evenodd">
      <g transform="translate(0.000000, 1.000000)" fill="#ffffff">
        <path
          d="M5.939,0 C2.666,0 0.00899999996,1.987 0.00899999996,4.438 C0.00899999996,6.674 2.224,8.52 5.101,8.825 L3.88,11.26 L8.129,8.56 C10.318,7.906 12,6.309 12,4.438 C12,1.988 9.213,0 5.939,0 Z"
          class="si-glyph-fill"> </path>
        <path
          d="M15.947,8.89 C15.947,7.766 14.885,6.602 13.658,6.022 C13.314,7.972 11.734,9.767 9.241,10.469 L8.054,11.111 C8.508,11.451 9.064,11.722 9.688,11.899 L13.326,13.87 L12.023,12.094 C14.24,11.869 15.947,10.523 15.947,8.89 L15.947,8.89 Z"
          class="si-glyph-fill"> </path>
      </g>
    </g>
  </g>
</svg>